<?xml version="1.0"?>
<svg xmlns="http://www.w3.org/2000/svg" xmlns:xlink="http://www.w3.org/1999/xlink" version="1.1" id="Capa_1" x="0px" y="0px" viewBox="0 0 375 375" style="enable-background:new 0 0 375 375;" xml:space="preserve" width="512px" height="512px"><g><g>
	<g>
		<path d="M0,187.5c103.6,200,271.4,200,375,0C271.4-12.5,103.6-12.5,0,187.5z M187.5,300c-53.2,0-107.2-40.7-150-112.5    C80.3,115.7,134.3,75,187.5,75s107.2,40.7,150,112.5C294.7,259.3,240.7,300,187.5,300z" data-original="#000000" class="active-path" data-old_color="#000000" fill="#212121"/>
	</g>
</g><g>
	<g>
		<path d="M187.5,112.5c-41.4,0-75,33.6-75,75c0,41.4,33.6,75,75,75c41.4,0,75-33.6,75-75C262.5,146.1,228.9,112.5,187.5,112.5z     M168.8,168.7c-10.4,0-18.8-8.4-18.8-18.8c0-10.4,8.4-18.8,18.8-18.8c10.4,0,18.8,8.4,18.8,18.8    C187.6,160.3,179.1,168.7,168.8,168.7z" data-original="#000000" class="active-path" data-old_color="#000000" fill="#212121"/>
	</g>
</g></g> </svg>
